<?xml version="1.0" encoding="utf-8"?>
<!-- Generator: Adobe Illustrator 25.0.0, SVG Export Plug-In . SVG Version: 6.00 Build 0)  -->
<svg version="1.1" id="Layer_1" xmlns="http://www.w3.org/2000/svg" xmlns:xlink="http://www.w3.org/1999/xlink" x="0px" y="0px"
	 viewBox="0 0 1920 1080" style="enable-background:new 0 0 1920 1080;" xml:space="preserve">
<style type="text/css">
	.st0{clip-path:url(#SVGID_2_);}
	.st1{clip-path:url(#SVGID_4_);}
	.st2{fill:#CCCCCC;}
	.st3{fill:#999999;}
	.st4{opacity:0.95;enable-background:new    ;}
	.st5{font-family:'Gabriola';}
	.st6{font-size:132px;}
	.st7{opacity:0.95;fill:none;stroke:#000000;stroke-miterlimit:10;enable-background:new    ;}
	.st8{letter-spacing:-1;}
	.st9{fill:none;stroke:#000000;stroke-miterlimit:10;}
	.st10{fill:#F49A9A;}
	.st11{fill:#E93535;}
	.st12{fill:#E30202;}
	.st13{fill:#720101;}
	.st14{fill:#EE6767;}
	.st15{fill:#AA0202;}
	.st16{fill:#D43535;}
	.st17{fill:#C90202;}
	.st18{fill:#390101;}
	.st19{clip-path:url(#SVGID_6_);}
	.st20{clip-path:url(#SVGID_8_);}
	.st21{clip-path:url(#SVGID_10_);}
	.st22{clip-path:url(#SVGID_12_);}
	.st23{clip-path:url(#SVGID_14_);}
	.st24{clip-path:url(#SVGID_16_);}
	.st25{font-size:50px;}
</style>
<g>
	<defs>
		<rect id="SVGID_1_" width="1920" height="1080"/>
	</defs>
	<clipPath id="SVGID_2_">
		<use xlink:href="#SVGID_1_"  style="overflow:visible;"/>
	</clipPath>
	<g class="st0">
		<g>
			<defs>
				<rect id="SVGID_3_" x="-5" y="-5" width="1930" height="1090"/>
			</defs>
			<clipPath id="SVGID_4_">
				<use xlink:href="#SVGID_3_"  style="overflow:visible;"/>
			</clipPath>
			<g class="st1">

					<image style="overflow:visible;enable-background:new    ;" width="4022" height="2272" xlink:href="E9ECD8F5.png"  transform="matrix(0.48 0 0 0.48 -5.28 -5.28)">
				</image>
			</g>
		</g>
	</g>
</g>
<path d="M438,892.5c-0.4-5.8-0.9-8-1.7-22c-0.2-4-0.1-0.5-1.7-22.6c-1.2-15.4-1.3-17.1-1.7-22c-1-10.3-2.1-18-2.3-19.2
	c-2.7-18.7,5.6-50.9-5.2-83c-6-17.8-11.8-17.6-16.8-37.7c-2.6-10.3-7.9-31.9,2.3-42.4c3.1-3.2,6.7-5,9.3-10.5c2.7-5.8,0.8-12,0-14.5
	c-1.5-4.7-4.3-9-8.1-12.2c-3.9-3.4-5.2-2.7-9.5-6.6c-3.3-2.9-3.5-4.3-7.3-8.5c-4.1-4.6-5.8-5.3-9.3-8.7
	c-5.3-5.2-12.4-12.1-12.2-20.9c0.1-5.2,3.1-11.7,8.1-13.9c3.9-1.7,6,0.5,12.2-1.7c2.7-1,6-2.2,7.5-5.2c1.6-3.2-0.3-5.4,1.7-8.1
	s5.1-2.5,5.2-4.1c0.1-1.3-2-1.7-4.1-4.1c-1-1.2-1.9-2.6-2.9-6.4c-2-7.2-1.2-9.9-2.3-13.9c-0.6-2.1-1.6-4.1-3-5.8
	c-1.6,0.1-3,0.2-4.4,1.5s-1.4,2.7-2.3,5.4c-2.1,6.2-6.5,10.1-9.3,12.6c-3.7,3.3-5.9,5.2-9.1,5.4c-4.7,0.3-6.9-3.5-9.3-2.3
	s-2.2,5.8-2.1,12.2c0.2,9,1.8,13.2,0.2,14c-1.4,0.7-4.3-1.4-9.3-5.2c-0.4-0.3-0.9-0.7-1.6-1.3c-1.5-1.4-2.9-2.8-4.3-4.3
	c2.3,11.6,3.3,18,1.5,23.5c-3.8,11.5-14.9,10.4-21.5,22c-5,8.8-4.3,19.4-1.7,29c2.6,7.5,5.7,15.5,9.3,23.8c1.9,4.4,4.7,9.3,9.3,19.7
	c0.9,2,1.4,3.2,1.2,4.6c-0.7,5.1-8,6.4-21.5,13.3c-16.8,8.6-18.2,13.1-18.6,15.1c-0.3,1.7-0.2,3.9-1.7,6.4c-2,3.3-5.2,4.3-7,5.2
	c-9.6,4.7-12.4,19.5-12.8,21.5c-1.9,10.7,3.7,13.9,0,20.9c-2.5,4.7-5.8,4.9-9.3,11c-2,3.6-3.2,7.7-3.5,11.8
	c-5.9,1.8-11.2,4.9-15.7,9.1c-2.7,2.6-6.6,6.3-8.7,12.2c-1.3,3.7-1,5.5-2.9,8.7c-2.3,3.8-5.4,5.4-7.6,7c-6.7,4.7-8.5,11.7-11,17.4
	c-9.7,21.6-34.3,34.9-45.3,51.6c-0.9,1.3-7,10.8-11,15.1c-0.8,0.8-1.6,1.7-2.3,2.7c-1.8,2.6-2.3,5-6.4,11.2c-1.8,2.7-2.5,3.5-5.1,7
	c-4.5,6-3.7,6.4-5.9,8.1c-2.4,1.8-2.8,0.7-7,2.9c-2.1,1.1-4.1,2.7-8.1,5.8c-3.2,2.5-3.4,2.9-5.2,4.1c-3.8,2.5-4.7,2.2-6.4,3.5
	c-4.9,3.8-1.2,9.8-5.8,15.7c-1.8,2.2-1.6,0.5-9.9,6.4c-2.7,2.1-5.6,3.9-8.7,5.2c-1,0.3-2,0.7-2.9,1.2c-2.6,1.4-3.8,3.2-6.4,7
	c-5.8,8.4-6.3,9-7.6,9.9c-1.6,1-2.7,1.3-4.1,2.9c-1.3,1.7-2.1,3.7-2.3,5.8c-1.1,8,4.7,14.5,5.8,15.7c1.2,1.3,2.6,2.5,4.1,3.5
	c2.7,1.9,5.6,3.4,8.7,4.6c3.5,1.4,7.2,2.4,11,2.9c2.4,0.3,6.3,1.2,11.6,1.7c10.9,1,17.3,1.7,25-0.6c4.8-1.4,6.1-2.8,10.4-2.9
	c4.8-0.1,7.9,1.5,11.6,2.9c4.3,1.6,5.9,1.6,19.1,3.5c38.7,5.6,45.4,8.8,58,4.7c6.6-2.2,6.1-3.5,11.6-4.7c15-3.1,19.3,6.3,37.1,7.5
	c14.9,1.1,33.3-3.9,36-4.6c3.6-1.1,7.3-1.7,11-1.8c3.8,0,4.4,0.5,10.2,0.7c3.5,0.1,3.4-0.1,10.7-0.1c2.3,0,5.7,0,9.9,0
	c3.6-0.2,7.5-0.6,11.6-1.2c3.5-0.5,6.8-1.1,9.9-1.7c5.7-1.1,11.3-2.7,16.8-4.6c4.5-1.8,17.8-6.9,25.5-19.7c3.5-5.8,5.1-12,6.4-16.8
	c1-4.2,1.8-8.5,2.3-12.8c3.2-21.8,3.1-20.1,3.5-23.2C441,931.4,440,918.3,438,892.5z"/>
<path d="M349.1,540.8c0.7,0.6,1.2,1,1.6,1.3c5,3.7,7.9,5.9,9.3,5.2c1.6-0.8,0-5.1-0.2-14c-0.2-6.3-0.2-11,2.1-12.2s4.5,2.5,9.3,2.3
	c3.2-0.2,5.4-2.1,9.1-5.4c2.8-2.5,7.2-6.4,9.3-12.6c0.9-2.6,0.8-4,2.3-5.4s2.8-1.4,4.4-1.5c1.4-0.1,2.8-0.4,4.1-1
	c3.6-1.8,6.1-5.3,6.6-9.3c0.6-6.4-5.2-10.7-6-11.3c-4.6-3.4-11.2-4.3-16.1-2.1c-3.9,1.8-4.7,4.6-8,4.5c-3.1-0.1-3.4-2.6-7.2-3.1
	c-3.5-0.5-4.5,1.5-8.9,1c-1.8-0.1-3.6-0.6-5.2-1.6c-2.9-2.2-1.9-5-4.1-8.3c-2.6-3.5-7-5.3-11.3-4.7c-6.3,1.2-8.7,8.6-8.9,9.1
	c-1.3,4.1,0.7,5-0.2,11.3c-0.8,6-2.6,6.2-2.1,9.5c0.8,4.8,5,6.6,4.1,9.9c-0.5,1.8-1.9,1.7-2.3,3.7c-0.5,2.5,1.5,3.5,2.3,6.8
	c0.9,3.8-1.3,5-0.8,8.5c0.3,2.3,1.5,3.5,6.2,8.3c3,3.1,5,5.2,6.5,6.8C346.2,538,347.6,539.4,349.1,540.8z"/>
<path class="st2" d="M1724.5,42c-68.2,0-123.5,52.2-123.5,116.5S1656.3,275,1724.5,275S1848,222.8,1848,158.5S1792.7,42,1724.5,42z
	 M1751.8,216.8c-0.7,0.8-4.7-1.7-6.3-0.3c-0.9,0.8-0.6,2.6,0,3.8c1.5,2.8,5.3,3.1,5.2,4.1c-0.1,0.8-2.5,0.9-5.9,1.9
	c-2.3,0.8-4.5,1.7-6.6,2.9c-6.3,2.9-8.4,1.5-18.8,4.8c-3,0.8-5.8,2.1-8.4,3.8c-2.1,1.4-3.9,2.8-4.9,5.1s-0.2,3.9-1.4,4.8
	s-3-0.4-5.9-0.3c-3.8,0.2-4.5,2.6-7.7,3.2c-4.5,0.9-10.9-2.4-12.5-6.7s2.7-6.9,0.7-11.8c-0.2-0.3-1.9-4.4-6.3-5.4
	c-3.7-0.8-6.8,1.1-8,1.9c-1.5,1-3.6,2.2-3.5,3.8c0.1,2.3,4.6,2.7,5.6,5.7c0.6,1.9-0.2,4.7-1.7,5.4c-6.5,3.2-31.2-27.6-32.8-26.4
	c-0.4,0.3,0.7,2.8,2.4,6.7c1.2,2.7,2,4.1,1.4,4.8s-2.9,0.3-4.2-0.3c-5.6-2.6-3-11.4-7.7-22c-2.3-5.1-3.5-4.5-7.7-11.1
	c-9.7-15.5-12-33.4-7.7-35.3c1.4-0.6,2.5,0.8,6.3,0.3c2.5-0.3,4.9-1.3,7-2.9c1.6-1.2,4.6-3.4,4.9-6.4c0.3-4.1-4.8-5.4-4.9-9.2
	s5-4.3,9.1-9.6c6.5-8.4,1-16.4,7.3-21c2.8-2.1,4-0.5,10.1-3.2c7.9-3.4,9.4-7.6,11.5-7c5.5,1.5-2.6,29.3,7,33.7
	c4.2,1.9,9.2-1.7,11.8,1c3.2,3.2-2.1,10.4,0.7,12.4c1.9,1.4,6.4-0.6,9.1-2.6c4.7-3.5,3.5-6.8,7.3-9.9c5.2-4.2,15.2-4.6,18.5-0.6
	c1.7,2.3,1.7,5.4,0,7.6c-1.7,2.1-4.2,1.6-7.7,3.2c-5.7,2.6-9.2,8.8-8,10.2c2,2.3,16.2-8,20.9-4.1c2,1.6,1.9,5.5,0.3,8
	c-2.7,4.2-8.6,2.1-12.2,5.7c-5.8,5.9,1.7,19.3,2.4,20.7c4.3,7.6,11.4,13.1,13.2,12.1c1.4-0.8-0.7-5.1,1-6c1.3-0.7,3.9,0.5,5.6,2.2
	c4.8,5-0.1,13.1,3.5,15.3c2.2,1.3,4.4-1.5,9.1-0.6C1748.9,210.2,1752.6,215.8,1751.8,216.8z M1778.7,156.9c-3.1-2.7-3.1-6.5-5.2-6.7
	c-2-0.1-2.5,3-5.2,3.5c-3.8,0.6-7.1-4.8-9.1-3.8c-1.4,0.7-0.1,3.7-1.7,4.8c-1.5,0.9-4.4-0.2-6.3-1.6c-6.8-5-4.5-16.3-7-16.6
	c-1.4-0.2-1.8,3.7-5.6,5.1c-2.5,0.9-6,0.5-7.7-1.3s-0.1-3.3-1.4-6.4c-1.7-3.9-5.6-4.6-5.2-6.7c0.3-1.6,2.8-1.4,4.2-3.5
	c2.1-3.3-0.9-9.3-2.8-9.2c-1.2,0-1.2,2.5-3.1,5.1c-4.3,5.6-14,5.7-16,5.7c-1.5,0-12.5-0.1-19.9-8.3c-4.7-5.2-8.4-14.2-4.5-20.7
	c1.4-2.3,6-4.6,15.3-9.2c7.1-3.5,8.8-3.7,10.4-3.5c5,0.7,5.8,4.9,11.2,5.4c4.3,0.4,7.2-2,8.7-0.6s-0.8,4.5,0.7,5.7s4.5-1.2,7,0
	s1.3,4.4,3.5,6s6.1,0.1,11.5-1.3c7.9-2.1,13.6-3.6,18.5-2.2c7.5,2,14.2,10.8,12.2,18.1c-0.9,3.2-3,5.8-5.9,7.3
	c-5,2.4-9.6-0.7-11.8,1.6c-1.6,1.7-0.6,4.7,1.1,9.6c1.8,5.2,3,8.7,5.9,9.6c4,1.2,7.3-3.8,10.1-2.5c3.2,1.4-0.1,7.9,4.2,13
	c3.4,4.1,8.9,4.1,8.7,5.1C1793,159.8,1783.5,161.2,1778.7,156.9L1778.7,156.9z"/>
<path class="st3" d="M1784.6,153.4c-4.3-5.2-1-11.6-4.2-13c-2.8-1.3-6.1,3.7-10.1,2.5c-3-0.9-4.2-4.4-5.9-9.6
	c-1.7-4.8-2.7-7.9-1.1-9.6c2.3-2.3,6.8,0.8,11.8-1.6c2.9-1.5,5-4.2,5.9-7.3c2-7.3-4.7-16.1-12.2-18.1c-4.9-1.3-10.6,0.2-18.5,2.2
	c-5.4,1.4-9.2,3-11.5,1.3s-1.1-4.8-3.5-6s-5.4,1.3-7,0s0.8-4.3-0.7-5.7s-4.4,1-8.7,0.6c-5.4-0.5-6.1-4.7-11.2-5.4
	c-1.7-0.2-3.4,0-10.4,3.5c-9.3,4.6-13.9,6.9-15.3,9.2c-3.9,6.5-0.2,15.5,4.5,20.7c7.4,8.2,18.3,8.3,19.9,8.3c2.1,0,11.7-0.1,16-5.7
	c2-2.6,1.9-5.1,3.1-5.1c1.9,0,4.9,5.9,2.8,9.2c-1.3,2.1-3.9,1.9-4.2,3.5c-0.4,2,3.5,2.8,5.2,6.7c1.3,3.1-0.3,4.6,1.4,6.4
	s5.2,2.2,7.7,1.3c3.7-1.4,4.2-5.3,5.6-5.1c2.4,0.3,0.2,11.6,7,16.6c1.9,1.4,4.8,2.5,6.3,1.6c1.7-1.1,0.3-4.1,1.7-4.8
	c1.9-0.9,5.3,4.5,9.1,3.8c2.8-0.5,3.2-3.6,5.2-3.5c2.2,0.1,2.2,4,5.2,6.7c4.9,4.3,14.4,2.9,14.6,1.6
	C1793.5,157.5,1788,157.5,1784.6,153.4z"/>
<path class="st3" d="M1743.1,209.1c-4.6-0.8-6.9,2-9.1,0.6c-3.6-2.2,1.4-10.3-3.5-15.3c-1.7-1.7-4.3-2.9-5.6-2.2c-1.8,1,0.3,5.3-1,6
	c-1.8,1-9-4.5-13.2-12.1c-0.8-1.4-8.2-14.8-2.4-20.7c3.6-3.6,9.4-1.6,12.2-5.7c1.6-2.4,1.7-6.3-0.3-8c-4.7-3.8-18.9,6.4-20.9,4.1
	c-1.2-1.4,2.3-7.6,8-10.2c3.5-1.6,6-1.1,7.7-3.2c1.7-2.3,1.7-5.4,0-7.6c-3.2-4-13.3-3.6-18.5,0.6c-3.8,3.1-2.6,6.4-7.3,9.9
	c-2.7,1.9-7.1,3.9-9.1,2.6c-2.8-2,2.5-9.2-0.7-12.4c-2.7-2.7-7.7,1-11.8-1c-9.5-4.4-1.5-32.2-7-33.7c-2.1-0.6-3.6,3.6-11.5,7
	c-6.1,2.7-7.3,1.1-10.1,3.2c-6.3,4.6-0.8,12.7-7.3,21c-4.1,5.3-9.1,5.8-9.1,9.6s5.2,5.1,4.9,9.2c-0.3,3-3.2,5.2-4.9,6.4
	c-2.1,1.5-4.5,2.5-7,2.9c-3.8,0.5-4.9-1-6.3-0.3c-4.3,2-2.1,19.8,7.7,35.3c4.2,6.6,5.4,6,7.7,11.1c4.6,10.6,2.1,19.4,7.7,22
	c1.3,0.6,3.5,1.1,4.2,0.3s-0.2-2.1-1.4-4.8c-1.7-3.9-2.9-6.4-2.4-6.7c1.6-1.1,26.2,29.6,32.8,26.4c1.5-0.8,2.3-3.5,1.7-5.4
	c-1-3.1-5.5-3.4-5.6-5.7c-0.1-1.6,1.9-2.9,3.5-3.8c1.2-0.8,4.3-2.7,8-1.9c4.3,1,6.1,5.1,6.3,5.4c2,4.8-2.4,7.4-0.7,11.8
	s8,7.6,12.5,6.7c3.2-0.6,3.9-3,7.7-3.2c3-0.1,4.6,1.3,5.9,0.3s0.4-2.4,1.4-4.8s2.8-3.6,4.9-5.1c2.6-1.7,5.4-3,8.4-3.8
	c10.4-3.3,12.5-1.8,18.8-4.8c2.1-1.1,4.3-2.1,6.6-2.9c3.4-1,5.8-1.1,5.9-1.9c0.1-1-3.7-1.3-5.2-4.1c-0.6-1.2-0.9-3,0-3.8
	c1.6-1.4,5.6,1.1,6.3,0.3S1748.9,210.2,1743.1,209.1z"/>
<text transform="matrix(1 0 0 1 197 151.44)" class="st4 st5 st6">Lo</text>
<text transform="matrix(1 0 0 1 197 151.44)" class="st7 st5 st6">Lo</text>
<text transform="matrix(1 0 0 1 297.19 151.44)" class="st5 st6 st8">v</text>
<text transform="matrix(1 0 0 1 297.19 151.44)" class="st9 st5 st6 st8">v</text>
<text transform="matrix(1 0 0 1 339.05 151.44)" class="st5 st6">ers in the moonlight</text>
<text transform="matrix(1 0 0 1 339.05 151.44)" class="st9 st5 st6">ers in the moonlight</text>
<path class="st10" d="M1415.7,575.7c2.6,0.1,5.2-0.4,7.6-1.3c5.3-2.1,8.1-6,10.2-8.8c4.1-5.7,5.7-11.6,9-23.2c0.3-1,0.7-2.4,1.3-4.6
	c1.8-6.1,2.6-7.8,3.3-10.6c1.2-4.4,0.3-4.4,1.3-10.9c1.5-10,4-13.6,1.7-17.2c-0.8-1.2-1.2-1.1-3.6-3c-5.9-4.6-5.5-7.2-10.6-12.2
	c-5.5-5.4-8.1-4.6-11.6-9.9c-2-3-1.5-4.5-3-6.6c-6.9-10-22.4-11.7-32.7-10.3c-12,1.7-22,8.3-21.5,9.9c0.3,1,4.9-0.9,13.9-0.7
	c5.1,0.1,9.1,1,17.2,2.6c10.8,2.3,11.9,3.4,12.6,4.3c1.9,2.7,0.6,5.1,3,11.9c0.9,2.7,1.5,3.3,2.3,5.3c4.4,10.6-1.2,16.7,2.7,20.8
	c3.7,3.9,13.5,3.5,15.2,6.3c0.2,0.4,0.5,0.8,0.6,1.3c0.6,1.7,0.2,3.3,2.3,10.6c1.6,5.5,2.5,6.7,1.7,8.3c-1.3,2.5-4.5,2-8.6,6.3
	c-0.6,0.6-1.1,1.3-1.6,2c-2.7,3.6-2.9,6.8-4.3,12.6c-2.2,9.1-4,12-4.6,12.9C1418.3,573,1417,574.4,1415.7,575.7z"/>
<path class="st11" d="M1326.4,514.5c-0.5,1-3.6,0.9-5.9-0.3c-3.8-1.9-4.8-6.2-5-6.9c-0.5-2.7-0.3-5.4,0.7-7.9
	c0.4-1.4,0.6-1.6,2.3-5.3c3.3-7.2,3.3-8.3,5-9.3s2.5-0.1,6.6-0.7s5.2-1.6,7.9-2.3c8.2-1.9,16.8,3.6,16.5,4.6c-0.1,0.4-1.6-0.3-3,0.7
	c-2.6,1.7-0.8,6.1-3,7.6c-0.8,0.5-1.5,0.3-6.6-1c-6-1.5-7.3-1.8-8.3-1c-1.1,1-0.2,2.3-1.3,4.3s-2.9,1.7-5,3.6c-2.7,2.5-4.1,7-3,10.3
	C1325.1,513,1326.8,513.8,1326.4,514.5z"/>
<path class="st12" d="M1342.2,536.7c1.7,0,4-0.5,4.3-1.7c0.4-1.5-2.7-3.2-7.3-6.3c-4.1-2.8-8.5-6.5-17.2-13.9
	c-4.8-4.1-6-5.4-6.6-7.6c-1.1-4.2,1-8.5,2-10.6c2.7-5.7,6-7.1,5.3-9.3c-0.7-2-4.3-3.1-6.9-2.3c-1.6,0.5-2.2,1.5-5,5
	c-5.2,6.7-5.7,6.6-5.9,7.9c-0.6,3.2,1.7,5.9,5.9,10.9c3.8,4.5,5.3,5.1,11.2,10.9c5.1,5,10.3,10.3,10.3,10.3
	C1336.2,534.1,1338.7,536.6,1342.2,536.7z"/>
<path class="st13" d="M1334,542.3c-3.7,0.2-7.7-3.3-15.5-10.3c-4.4-3.9-6.6-5.9-7.6-7.9c-1.2-2.4-1.7-6-2.6-13.2
	c-0.5-3.6-0.4-4.4,0-4.6c1.3-0.7,4.7,4.4,11.6,10.9c2.4,2.3,3.6,3.4,4.6,4.3s2.1,1.7,3.3,3c0.9,1,1.8,2,2.7,3
	c4,4.9,11.9,6.2,11.9,9.3C1342.3,539.2,1338,542.1,1334,542.3z"/>
<path class="st14" d="M1341.3,482.1c0.7-1.7-4.9-6.4-11.2-8.9c-0.7-0.3-13.7-5.2-25.8,0.7c-3.7,1.9-7.1,4.3-10.3,7
	c-3.4,2.9-2.9,3.2-5,4.6c-6.8,4.7-12.6,1.9-14.9,5.6c-0.6,1-0.5,1.7,0.3,8.6c0.4,3.6,0.8,7.3,1.3,10.9c1.5,10.4,0.1,13.1,1,19.8
	c1.2,8.9,5.3,15.2,8.9,20.8c3.9,6.1,13.8,21.3,25.5,20.5c2.3-0.2,5.8-1,6.3-3c0.8-2.9-6.1-4.6-10.3-12.2c-1.9-3.5-2.5-7.7-3.6-16.2
	c-0.8-6.2-0.3-7.7,0-8.6c0.7-1.2,1-2.6,1-4c-0.1-1.8-1.1-2.9-2-4.3c-1.3-2-3.8-5.7-3.6-9.3c0.1-2.9,2-6.3,4.6-7.3s4.7,0.6,5.3-0.3
	c0.9-1.4-4.9-5.1-4-8.6c0.3-1.1,0.9-0.9,3.3-3.6c2.2-2.5,2-3.1,4-5.3s3.3-3.5,5-3.6c2.5-0.1,3.7,2.6,5.6,2c1.1-0.4,0.8-1.3,2.3-2.3
	c0.9-0.6,1.6-0.7,5-1c2.2-0.2,3.2-0.3,4-0.3C1338.1,483.4,1340.9,483.2,1341.3,482.1z"/>
<path class="st13" d="M1362.1,556.2c0.3,2.5-9.3,5.3-21.5,8.9c-18,5.3-21.3,4.4-23.2,3.6c-8.4-3.5-11.8-13.4-12.9-16.5
	c-1.5-4.5-2.1-9.2-1.7-13.9c-0.1-2-0.1-4,0-6c0.2-2.2,0.4-5.5,1.3-5.6c0.7-0.1,1.4,1.5,1.7,2c1.1,2.2,0.4,3.3,1,5.3
	c0.7,2.5,1.9,1.9,3.3,5c1.1,2.4,0.6,3.3,2,5c0.8,1,1.8,1.7,3,2c0.9,0.2,1.8,0.2,2.6,0c2.1-0.4,4.2-0.3,6.3-0.7
	c5.3-0.9,14.4,3.9,26.1,7.3C1358.6,555,1361.9,554.8,1362.1,556.2z"/>
<path class="st11" d="M1387.2,544c-0.9-2.3-16,6.5-35,4c-13.9-1.9-23.4-8.9-28.8-12.9c-7.1-5.3-13.1-9.9-14.2-17.2
	c-0.8-5.2,1.3-9.2-1-10.9s-7.6-0.1-9.6,3.3c-2.1,3.6,0.3,8.2,1.3,10.2c1.3,2.6,2.2,2.6,4,5.6s1.6,4.2,3,7.9c2,5.6,3.7,10.2,7.3,11.9
	c2.5,1.2,3.5,0,7.9,0c6.8,0,7.7,3,17.2,5.6c5,1.4,4.1,0.4,15.2,2.6c6.6,1.3,6.7,1.7,8.9,1.7c6.6,0,11.7-2.8,14.9-4.6
	C1379.1,550.8,1387.9,545.7,1387.2,544z"/>
<path class="st15" d="M1310.8,571.1c-0.9,3.1,6.1,8.5,12.9,10.9c8.2,3,15.6,1.4,23.8-0.3c6.9-1.5,14.2-3,22.2-7.9
	c6.4-4,8.9-7.5,15.2-8.3c5.8-0.8,7.4,1.7,10.6,0c5.1-2.7,2.2-9.3,8.3-18.8c3.1-4.9,5.2-5.1,7.3-10.3c1.3-3.2,3.3-7.9,1-11.9
	c-2.7-4.8-10.7-6.7-14.2-4c-3.2,2.4-0.2,6.6-3.6,14.2c-2.1,4.7-5.4,7.8-8.6,10.9s-4.7,4.3-7.3,5.6c-4.2,2.2-7.4,1.6-10.9,2.6
	c-10.1,3-11.3,5.6-20.8,8.9c-4.7,1.6-9,2.4-17.5,4C1315.8,569.2,1311.5,568.9,1310.8,571.1z"/>
<path class="st10" d="M1344.2,512.9c-0.5,0.5-4.8-1.3-5-4c-0.1-1.5,1.2-2.5,3.6-4.6c1.8-1.5,2.6-2.2,4-2.3c1.7-0.1,4,0.7,4.6,2.6
	c0.8,2.5-1.6,4.6-2,5c-2.2,1.9-5.8,2.2-6.6,1c-0.6-0.8,0.2-2.4,1-3.3c1.7-1.8,4.6-1.6,4.6-1.6c-0.9,0.1-1.8,0.3-2.7,0.7
	c-0.7,0.2-1.4,0.5-2,1c-0.9,1.1-0.5,2.9-0.3,3.6C1343.9,512.3,1344.4,512.7,1344.2,512.9z"/>
<path class="st14" d="M1339.3,508.9c-1.2-0.3-2.1-10.4,2.3-12.2c3.9-1.6,9.1,4.4,9.6,5c2.8,3.2,3.7,6.7,3.3,6.9
	c-0.6,0.3-3.8-7-7.6-6.6c-1.3,0.1-2.4,1.1-4,2.6C1340.2,507.2,1339.8,509.1,1339.3,508.9z"/>
<path class="st15" d="M1356.8,497.4c-0.4-1.3-1.4-2.4-2.6-3c-1.3-0.5-2.3,0.1-4.3,0.3c-2,0.2-4-0.1-5.9-0.7
	c-4.4-1.1-5.4-2.8-8.3-2.3c-1,0.1-1.9,0.6-2.7,1.3c-0.8,1-0.7,1.9-1,3c-0.7,2.7-3.3,2.6-5.6,5.3c-1.8,2.3-2.6,5.3-2.3,8.3
	c0.4,2.3,1.6,4.4,3.3,5.9c0.4,0.4,2.3,2.4,3,2s-1-2.9-0.7-6.3c0.3-2.4,1.4-4,3-6.3c1.5-1.9,3.2-3.6,5-5.3c2.4-2.4,3-2.9,4-3
	c0.5,0,1.2,0,4.3,1.6c1.4,0.7,2.7,1.5,4,2.3c4.7,3.5,3.2,12.1,4.6,12.2S1359.5,503.2,1356.8,497.4z"/>
<path class="st14" d="M1322.1,514.9c-0.6,1.3,3.7,5,8.3,6.9c3.9,1.7,7.2,1.7,12.2,1.7c4.5,0,9-0.8,13.2-2.3c1.6-0.5,3.1-1.4,4.3-2.7
	c1.3-1.5,1.1-2.2,2.3-3.3c1.9-1.7,3.7-0.7,5-2c0.3-0.3,1.4-1.5,0-6.6c-1-3.7-4-12.2-7.6-11.9c-1.6,0.1-2.7,2-3,2.6
	c-1.6,2.9,0.5,4.5-0.3,9.6c-0.3,2-1,3.9-2,5.6c-0.4,0.9-1,1.7-1.7,2.3c-0.8,0.7-1.6,0.9-3.6,1.7c-2.9,1-2.5,1-3.6,1.3
	c-2.5,1-5.2,1.4-7.9,1.3c-1.9-0.1-5.4-0.4-8.3-2.6c-0.8-0.9-1.9-1.6-3-2C1324.7,514,1322.4,514,1322.1,514.9z"/>
<path class="st10" d="M1339.3,544.3c8-2.2,15.7-5.6,22.8-9.9c9.1-5.6,14.1-10.8,19.2-16.2c7.2-7.6,9.1-11.8,7.9-14.5
	c-0.8-1.9-2.7-2.3-3.3-5c-0.7-3.2,1.7-4.6,1-6.9c-0.2-0.6-0.8-1.6-9.3-4.6c-5.1-1.8-6.3-1.9-6.9-2c-2.9-0.2-3.6,0.5-7.6,1
	c-7.3,1-9-1-11.6,1c-2.8,2.2-4.2,6.5-3,7.6s3.4-1.3,5.6,0c1.5,0.9,1.8,2.7,2.6,2.6s0.7-1.5,1.7-2c1.4-0.7,3.7,1.3,5,2.6
	c1.5,1.7,2.1,3.6,3.3,7.3c1.6,5.2,1.3,6.1,1,6.6c-0.7,1.3-1.8,1.2-4.3,2.6c-2.8,1.7-3,2.8-5.3,4.6c-3.1,2.4-6.2,3-9.6,3.6
	c-3.3,0.6-6.6,0.7-9.9,0.3c-5.2-0.6-8-2.2-8.3-1.7c-0.5,0.9,5.5,5.6,10.6,8.9c3.4,2.2,5.9,3.5,5.6,4.6c-0.2,0.9-2.1,0.7-5.6,2
	c-2.2,0.8-6.6,2.3-6.6,4.3c0,0.4,0.1,0.7,0.3,1C1335.8,544.4,1338.9,544.3,1339.3,544.3z"/>
<path class="st13" d="M1352.5,484.8c-0.1-1,4.8-3.5,10.9-4c4.1-0.2,8.3,0.4,12.2,1.6c1.1,0.3,3.3,1.2,7.5,2.8c5.8,2.3,6.5,2.7,7,3.1
	c1.2,1,2.6,2.6,4.6,8.9c1.5,4.1,2.5,8.3,3,12.6c0.5,5,1.3,11.4-1,19.2c-1.5,5.1-3.2,11-8.6,14.5c-1.1,0.7-2.6,1.5-8.3,2.7
	c-6.4,1.3-12.3,2.6-20.8,2.3c-7.5-0.2-20-1.5-20.2-4c-0.1-1.9,8.1-1.9,19.5-8.3c4.5-2.6,8.7-5.6,12.6-8.9c6.9-5.7,8.1-8.2,12.6-12.2
	c1.7-1.5,3.1-3.3,4.3-5.3c0.1-0.1,0.1-0.3,0.2-0.4c0.6-1.1,2-3.9,1.1-5.9c-0.6-1.3-1.8-0.9-2.7-2.6c-0.3-0.7-0.5-1.5-0.7-2.3
	c-0.2-0.9-0.3-1.8-0.3-2.6c0.5-1.5,0.4-3.2-0.3-4.6c-0.8-1.3-2.1-1.6-4.3-2.3c-5.9-2-5.1-2.8-7.9-3.3c-2.4-0.3-4.9-0.3-7.3,0
	c-0.4,0-1.3,0.2-2.7,0.3c-0.6,0.1-1.4,0.1-3.6,0.3c-3.7,0.3-4.2,0.3-5,0C1353.6,486.1,1352.9,485.5,1352.5,484.8z"/>
<path class="st12" d="M1346.2,481.8c-0.1-0.9,0.4-1.8,5-5.3c2.5-2.1,5.2-3.9,7.9-5.6c5.4-3.1,11.3-4.9,17.5-5.3
	c11.9-0.5,25.4,5.6,29.4,4.3c1.1-0.4,2.2-0.5,3.3-0.3c1,0,1.9,0.4,2.6,1c0.8,0.9,1.3,2.1,1.3,3.3c0.1,1.2,0,2.5-0.3,3.6
	c-0.4,2.4,0.4,4.2,1.7,7.3c1.4,3.5,2.4,7.1,4,10.6c3.2,7.2,2.2,15.8,1.3,23.5c-1.2,11-5.1,21.6-11.2,30.8c-3.3,4.8-9,11.8-10.6,10.9
	c-1.3-0.7,0.1-6.7,2.6-11.3c1.1-1.8,2.3-3.4,3.6-5c4.6-5.8,5.4-5.6,6.6-7.9c1.8-3.6,2.5-9.4-0.3-12.6c-1.7-1.9-4.9-2.9-7.3-3
	c-2.6-0.1-4.7,0.8-5.6-0.3c-0.4-0.7-0.5-1.5-0.3-2.3c0.4-4,0.3-8-0.3-11.9c-0.1-0.8-0.1-0.5-3-7.6c-3.2-8-3.3-8.5-4.3-9.6
	c-1.7-1.8-4.4-2.6-9.9-4.3c-4-1.3-8.1-2.2-12.2-2.6c-5.4-0.5-8.1-0.8-10.9,0.7c-1.7,0.9-2.4,1.8-4.3,2
	C1349.8,485.1,1346.5,483.6,1346.2,481.8z"/>
<path class="st13" d="M1371.7,575.7c-4.5,4-9.5,7.4-14.9,10.3c-12.6,6.8-21.7,7-21.8,10.3c0,2.1,3.8,3.8,5,4.3
	c8.3,3.6,16.7,1.5,32.4-3.6c18-5.9,27.2-8.9,34.4-13.9s14.6-10,17.2-18.8c1.7-5.6,0-7.7,2.6-12.2c4.3-7.4,12.2-7.7,12.9-13.6
	c0.2-1.5-0.3-1.4-2-6.9c-2.8-9.4-1.7-10.8-3.6-13.9c-3.7-5.9-12.7-8.7-15.2-6.3c-1.4,1.3-0.4,3.6,0,7.3c0.8,7.6-2.2,13.3-7.3,23.5
	c-5.2,10.3-7.8,15.5-13.2,18.5c-6.1,3.4-9.2,1.2-16.2,5.6C1377.5,568.9,1377.6,570.5,1371.7,575.7z"/>
<path class="st16" d="M1284.4,593.6c-2,2.6,7.7,13,8.9,14.2c3.6,3.8,10.6,10.4,32.1,22.2c15,8.2,18.3,8.6,21.2,8.6
	c7.4-0.1,13.7-3.5,20.2-6.9c3.8-2,7.2-4.3,14.9-10.3c15.4-12,23.1-18,28.8-26.1c5.9-8.3,10.7-18.8,8.6-20.5
	c-1.8-1.5-7.4,5.3-21.5,12.2c-5.8,2.8-11.7,5.1-17.8,6.9c-11.6,3.8-9.7,1.7-21.2,5.3c-6.7,2.1-10.1,3.7-13.9,2
	c-2.9-1.3-3.4-3.2-7-4.6s-7-1-9.6-0.7c-12.8,1.7-19.2,2.6-19.8,2.6C1294.5,599.3,1286.2,591.2,1284.4,593.6z"/>
<path class="st17" d="M1275.4,502.3c-1.5-0.6-4.3,1-9.9,4.3c-4.6,2.7-7.2,4.2-9.3,6.9c-2.8,3.8-2.9,7.6-3.3,12.6
	c-1.6,19.2-4.9,18.3-3.6,25.8s5.3,12.3,12.9,21.5c4,4.8,10.2,12.2,18.5,17.5c29.6,19,70,0,72.8-1.3c18.3-8.9,29.3-22.3,28.4-23.5
	c-1.2-1.7-27.5,14.5-40,15.2c-8.4,0.5-18.2,0.7-18.2,0.7l0,0c0,0-6.2-5.1-8.9-7.3c-7.1-5.7-11.9-8.3-15.2-10.6
	c-9-6.4-16-15.2-20.2-25.5C1272.7,520.8,1280.7,504.4,1275.4,502.3z"/>
<path class="st16" d="M1249.3,535.4c-4.1-1.3-6.1-7.4-6.6-10.9c-0.5-3.9,1.3-5.1,2.3-11.6c0.8-5.1,0.1-6.5,0.3-11.6
	c0.2-2.7,0.5-10.1,3.6-16.5c0.8-1.6,2.2-4.3,17.5-16.9c10.2-8.4,11.8-9.1,13.6-9.6c3.9-1.1,6.8-0.6,19.5,2
	c11.6,2.3,17.4,3.5,17.8,3.6c15.4,5,28.2,16,27.1,18.2c-0.4,0.8-2.9,0.6-4.6,0c-3.1-1.1-4.1-3.8-5.6-5.6c-4.5-5.5-14-4.9-18.5-4.6
	c-5.9,0.3-11.6,2.3-16.5,5.6c-0.4,0.3-4.5,3.5-12.6,9.9c-1.6,1.5-3.5,2.5-5.6,3c-3.2,0.6-5.1-0.8-6.3,0.3c-0.6,0.6-0.6,1.6,0,6.3
	c0.4,3.3,0.6,5,0.7,5.3C1276.8,509.8,1259.6,538.6,1249.3,535.4z"/>
<path class="st18" d="M1341.6,496.7c-0.7-0.6-6.3,3.2-9.9,9.3c0,0-3,5-2.3,9.3c0.1,0.6,0.3,1.2,0.7,1.7c0.6,0.8,1.5,1.4,4,2
	c1.8,0.5,3.7,0.7,5.6,0.7c5.1-0.2,9-2.2,8.9-3c0-0.2-0.2-0.3-0.9-1.5c-0.1-0.1,0-0.1-0.1-0.1c-0.6-0.8-1.4-1.4-2.3-1.7
	c-1.2-0.4-1.7-0.5-2.3-0.7c-1.6-0.7-2.9-2-3.6-3.6c-1-2.4-0.3-4.7,0.3-6.9C1340.6,498.4,1342,497,1341.6,496.7z"/>
<path class="st12" d="M1343.9,509.9c-0.6,0.4-0.6,1.8,0,2.6s1.3,0.5,2.3,1.3c1.3,1.1,0.9,2.5,2,3c0.6,0.2,1.1,0,2-0.3
	c1.5-0.6,3.5-1.5,4.3-3.6c0.4-1.4,0.3-2.9-0.3-4.3c-0.6-2-2-4.2-2.7-4s0.2,2.2-1,3.6c-1.4,1.4-3.4,2-5.3,1.7
	C1344.7,509.8,1344.3,509.6,1343.9,509.9z"/>
<g>
	<defs>
		<path id="SVGID_5_" d="M738.1,638.9c-18.9,0.9-33.3-12.5-54.1-32c-12.6-11.8-25.9-24.2-34.6-45.6c-4.9-12.1-13-31.9-5.9-54.8
			c2-6.4,9.6-31.2,33.8-39c16.2-5.2,36.9-2,47.6,9.7c7,7.6,8.3,17.2,13.5,17.1c4.3,0,5.8-6.5,11-12.9c9.5-11.5,26.1-15.2,37.2-14.7
			c20.6,1,36.6,17.3,43.4,32c11.8,25.2-0.5,51.2-7,64.8c-9,19.1-21.1,29.9-39,46C762.8,628.6,752.1,638.2,738.1,638.9z"/>
	</defs>
	<clipPath id="SVGID_6_">
		<use xlink:href="#SVGID_5_"  style="overflow:visible;"/>
	</clipPath>
	<g class="st19">
		<g>
			<defs>
				<rect id="SVGID_7_" x="635.7" y="460" width="204.3" height="184"/>
			</defs>
			<clipPath id="SVGID_8_">
				<use xlink:href="#SVGID_7_"  style="overflow:visible;"/>
			</clipPath>
			<g class="st20">

					<image style="overflow:visible;enable-background:new    ;" width="426" height="384" xlink:href="E9ECD8FB.png"  transform="matrix(0.48 0 0 0.48 635.52 459.84)">
				</image>
			</g>
		</g>
	</g>
</g>
<g>
	<defs>
		<path id="SVGID_9_" d="M1042.8,488.3c0.5-9.5-24.8-18.5-41.5-22c-12.2-2.6-18.3-3.8-25.8-1.5c-19,6-27.9,29-29.9,44.1
			c-2.3,16.7,3,29.3,9.7,45.2c3.3,7.8,12.3,27.5,32.1,48.2c24.1,25.2,52,39.3,54.6,36.3c1.9-2.3-12.2-12.5-9.3-23.2
			c2.6-9.5,16.2-10.7,16.1-16.8c-0.2-7.7-21.8-9.3-22.8-18c-1-8.8,20.8-13.5,20.9-25c0.1-9.8-15.6-14.2-14.2-22.1
			c1.5-8.2,19.8-9.2,19.8-15c0-6.1-21.1-8.3-21.7-16.1C1030.4,496.6,1042.4,494.8,1042.8,488.3z"/>
	</defs>
	<clipPath id="SVGID_10_">
		<use xlink:href="#SVGID_9_"  style="overflow:visible;"/>
	</clipPath>
	<g class="st21">
		<g>
			<defs>
				<rect id="SVGID_11_" x="940" y="458.5" width="117.4" height="185.5"/>
			</defs>
			<clipPath id="SVGID_12_">
				<use xlink:href="#SVGID_11_"  style="overflow:visible;"/>
			</clipPath>
			<g class="st22">

					<image style="overflow:visible;enable-background:new    ;" width="246" height="387" xlink:href="E9ECD8FC.png"  transform="matrix(0.48 0 0 0.48 939.84 458.4)">
				</image>
			</g>
		</g>
	</g>
</g>
<g>
	<defs>
		<path id="SVGID_13_" d="M1058.8,639.7c-8.8-1.6-16-18.5-11.2-28c3.8-7.7,14.4-8.9,13.8-12.3c-0.4-2.4-5.5-1.9-12.7-6.3
			c-2.2-1.3-10.8-6.6-10.1-11.6c0.4-2.9,3.4-3,10.5-9.3c4-3.6,6.1-5.4,7.5-8.6c1.7-4.2,2-8.8,0.7-13.1c-3-9.5-12.5-10.7-12-16.1
			c0.2-1.6,3.1-4.2,9-9.3c6.5-5.7,8-6.4,7.8-7.8c-0.4-4.5-15.7-2.9-18.3-9.4c-2.3-5.6,6.2-13.9,14.6-22c13.8-13.3,20.6-20,31.4-22.1
			c17.3-3.3,31.7,6.5,38.1,10.8c4.2,2.8,21.2,14.4,26.2,35.5c4.7,20-4.3,36.7-14.2,55c-11.2,20.7-25.2,33.7-32.9,40.8
			c-12.6,11.5-11.7,7.2-31,23.5C1067.1,636.8,1063.5,640.6,1058.8,639.7z"/>
	</defs>
	<clipPath id="SVGID_14_">
		<use xlink:href="#SVGID_13_"  style="overflow:visible;"/>
	</clipPath>
	<g class="st23">
		<g>
			<defs>
				<rect id="SVGID_15_" x="1033.6" y="458" width="126.8" height="186.8"/>
			</defs>
			<clipPath id="SVGID_16_">
				<use xlink:href="#SVGID_15_"  style="overflow:visible;"/>
			</clipPath>
			<g class="st24">

					<image style="overflow:visible;enable-background:new    ;" width="265" height="390" xlink:href="E9ECD8FF.png"  transform="matrix(0.48 0 0 0.48 1033.4399 457.92)">
				</image>
			</g>
		</g>
	</g>
</g>
<text transform="matrix(1 0 0 1 686.54 681.4)" class="st5 st25">1 point</text>
<text transform="matrix(1 0 0 1 996.35 689.4)" class="st5 st25">l</text>
<text transform="matrix(1 0 0 1 1006.03 689.4)" class="st5 st25">o</text>
<text transform="matrix(1 0 0 1 1023.67 689.4)" class="st5 st25">se li</text>
<text transform="matrix(1 0 0 1 1081.5699 689.4)" class="st5 st25">f</text>
<text transform="matrix(1 0 0 1 1092.4099 689.4)" class="st5 st25">e</text>
<text transform="matrix(1 0 0 1 1289.5699 691)" class="st5 st25">2 points</text>
<path d="M1835.5,681.2c-1.5-6.7-4-11.1-6.4-15.6c-16.9-31.2-12.6-37.9-26.3-58c-6.7-9.7-12.7-18.6-24.2-26.3
	c-15.5-10.4-28.8-10.6-43-25.8c-6.9-7.4-7.5-11.3-7.5-13.4c-0.2-10.1,11.7-13.2,12.9-24.2c1-9.4-6.6-17.2-10.2-21
	c-11-11.5-25.4-12.2-29.6-12.4c-11.8-0.4-26.6,3.7-27.4,9.7c-0.2,1.7,0.9,1.7,1.1,4.3c0.4,6.9-7.7,9.9-7,16.7c0.2,2.1,1,1.8,1.1,3.8
	c0.2,6.1-7.1,9.6-5.9,12.4c0.9,2.1,5.7,1.6,5.9,3.2c0.1,1.2-2.4,2-2.2,3.2s2.6,1,3.2,2.7c0.4,1.1-0.5,1.6,0,2.7
	c0.6,1.3,2.1,1.2,2.2,2.2c0,0.6-0.7,0.9-1.1,1.6c-0.9,1.5-0.1,4.1,1.1,5.4c1.8,1.9,4.2,0.8,11.8,1.6c5.3,0.6,6.2,1.4,6.4,2.2
	c0.4,1.2-1,2.6-1.6,3.2c-14.5,14.5-21.5,18.3-21.5,18.3c-13.2,7-14.4,5.6-19.9,9.1c-2.8,1.8-10.1,7-22,38.2
	c-8.9,23.1-8.1,28.6-16.7,45.1c-6.1,11.8-6.1,8.2-12.9,21c-14.7,27.6-14.7,44-24.2,52.7c-4.8,4.3-4.2,5.9-7,11.3
	c-0.8,1.6-1.9,3.1-3.2,4.3c-1.3,1.1-2.7,2-4.3,2.7c-4.5,2.7-7,12.2-3.2,18.3c2.4,4,7.6,6.7,9.7,5.4s-0.4-5.6,2.2-10.2
	c2.3-4.2,7.3-6.1,8.1-5.4c1.1,1.2-7.8,10.4-6.4,11.8c0.3,0.3,1.1,0.2,2.7-0.5c5.5-2.6,8.1-6.8,10.2-9.1c4.3-4.6,8.6-3.1,15.6-5.9
	c3.7-1.5,8.4-4.1,30.6-34.9c6.5-9,7.4-10.5,8.6-10.2c5.6,1.5,3.8,40.7-10.2,75.8c-2.3,5.6-4.4,10-8.6,18.8
	c-15.7,32.5-21,35-24.2,47.8c-0.8,3.2,1.3,18,5.4,47.3c5.3,37.8,8,56.8,8.1,57c1.9,5,5.3,12.7,2.7,21c-1.5,4.8-3.7,5.5-8.1,15
	c-3.7,8.1-2.9,9.3-5.4,11.3c-5.4,4.5-12.2,1.2-15.6,5.9c-1.1,1.6-2.2,4.4-1.1,6.4c3.1,5.7,24,5.3,35.5-3.8c2.6-2.3,5.8-4,9.1-4.8
	c0.4-0.1,8.4-1.9,10.8,1.6c1.4,2.2-0.6,4.2,0.5,6.5c1.9,3.7,11.5,5.2,16.7,1.6c6-4.2,3.2-13.4,2.7-40.8c-0.4-23.2,1.5-22.8,0-37.6
	c-1.8-17.3-2.7-25.9-7-34.9c-3.5-7.3-7.3-11.7-6.4-18.8c0.6-4.9,2.9-7,4.8-15.6c0.8-3.9,1.4-7.8,1.6-11.8c1.2-10.8,9.4-19,25.8-34.9
	c14.7-14.4,17-13.1,23.6-22.6c3-4.3,5.4-8.5,7.5-8.1c2.5,0.6,2.3,7,4.3,21.5c1.4,10.1,1.6,7.8,3.8,22c2,12.9,3,22.8,3.2,25.3
	c1.5,15,2.3,23,2.2,33.8c-0.3,10.1-1.2,20.1-2.7,30.1c-1.7,12.4-2.6,13.4-4.3,27.4c-0.3,2.7-0.9,9.5-2.2,23.1
	c-0.5,4.5-0.7,8.9-0.5,13.4c0.2,6.3,0.9,7.4,1.1,11.3c0.6,13.8-7.4,20-4.3,24.2s13.3,1.1,15.1,0.5c6.3-1.9,15.8-7.5,16.1-14.5
	c0.2-3.3-1.7-6.9,0.5-9.7c0.6-0.7,1.3-1.3,2.2-1.6c16.2-7.5,19.9-62.3,19.9-62.3c1.6-23.6,0.2-20.1,2.2-59.1
	c0.4-8,1.3-25.1,3.2-43.5c2-19.2,2.6-16,2.7-22.6c0.1-7.9-0.8-12.3,2.2-15c4.3-4,10.5,1.5,15-2.2c5.5-4.3,3.6-17.6,6.4-30.1
	c0.3-1.9,1.3-3.6,2.7-4.8c2.6-2.1,6.1-1.7,7-1.6c8.6,0.5,24-23.6,33.3-55.3C1836.9,697.7,1837.3,689.3,1835.5,681.2z M1800,715
	c-4.1,8.3-13,16-17,14c-3.7-1.8-2.4-11,0-28c2.3-16.4,4.7-32.8,9-33c4.7-0.2,8.7,18.6,9,20C1802.7,696.1,1804.7,705.5,1800,715z"/>
</svg>
